<mxfile host="app.diagrams.net" modified="2023-06-04T14:34:56.395Z" agent="Mozilla/5.0 (Macintosh; Intel Mac OS X 10_15_7) AppleWebKit/537.36 (KHTML, like Gecko) Chrome/114.0.0.0 Safari/537.36" version="21.3.7" etag="4KKivQ2cgZRf20_IPG85" type="github">
  <diagram name="Page-1" id="CTAsHsPJ_n8L9GHP9Kuk">
    <mxGraphModel>
      <root>
        <mxCell id="0" />
        <mxCell id="1" parent="0" />
      </root>
    </mxGraphModel>
  </diagram>
</mxfile>
